<mxfile host="app.diagrams.net" agent="Mozilla/5.0 (Windows NT 10.0; Win64; x64) AppleWebKit/537.36 (KHTML, like Gecko) Chrome/139.0.0.0 Safari/537.36" version="28.1.0">
  <diagram name="hub42-ERD" id="hub42">
    <mxGraphModel dx="692" dy="388" grid="1" gridSize="10" guides="1" tooltips="1" connect="1" arrows="1" fold="1" page="1" pageScale="1" pageWidth="1169" pageHeight="827" math="0" shadow="0">
      <root>
        <mxCell id="0" />
        <mxCell id="1" parent="0" />
        <mxCell id="N0umxeykzzDbpMKL0NBh-1" value="Equipment" style="swimlane;fontStyle=0;childLayout=stackLayout;horizontal=1;startSize=26;fillColor=#dae8fc;strokeColor=#6c8ebf;" parent="1" vertex="1">
          <mxGeometry x="120" y="80" width="530" height="124" as="geometry" />
        </mxCell>
        <mxCell id="N0umxeykzzDbpMKL0NBh-2" value="+ id: PK" style="text;strokeColor=none;fillColor=none;align=left;spacingLeft=4;" parent="N0umxeykzzDbpMKL0NBh-1" vertex="1">
          <mxGeometry y="26" width="160" height="98" as="geometry" />
        </mxCell>
        <mxCell id="N0umxeykzzDbpMKL0NBh-3" value="+ name: str" style="text;strokeColor=none;fillColor=none;align=left;spacingLeft=4;" parent="N0umxeykzzDbpMKL0NBh-1" vertex="1">
          <mxGeometry x="160" y="26" width="160" height="98" as="geometry" />
        </mxCell>
        <mxCell id="N0umxeykzzDbpMKL0NBh-4" value="+ price: decimal" style="text;strokeColor=none;fillColor=none;align=left;spacingLeft=4;" parent="N0umxeykzzDbpMKL0NBh-1" vertex="1">
          <mxGeometry x="320" y="26" width="160" height="98" as="geometry" />
        </mxCell>
        <mxCell id="iFhvtQih0RZkRo9jPCLU-2" value="equipment" style="swimlane;fontStyle=0;childLayout=stackLayout;horizontal=1;startSize=26;fillColor=none;horizontalStack=0;resizeParent=1;resizeParentMax=0;resizeLast=0;collapsible=1;marginBottom=0;whiteSpace=wrap;html=1;" vertex="1" parent="1">
          <mxGeometry x="90" y="250" width="270" height="104" as="geometry" />
        </mxCell>
        <mxCell id="iFhvtQih0RZkRo9jPCLU-3" value="+ id: int" style="text;strokeColor=none;fillColor=none;align=left;verticalAlign=top;spacingLeft=4;spacingRight=4;overflow=hidden;rotatable=0;points=[[0,0.5],[1,0.5]];portConstraint=eastwest;whiteSpace=wrap;html=1;" vertex="1" parent="iFhvtQih0RZkRo9jPCLU-2">
          <mxGeometry y="26" width="270" height="26" as="geometry" />
        </mxCell>
        <mxCell id="iFhvtQih0RZkRo9jPCLU-4" value="+name : str" style="text;strokeColor=none;fillColor=none;align=left;verticalAlign=top;spacingLeft=4;spacingRight=4;overflow=hidden;rotatable=0;points=[[0,0.5],[1,0.5]];portConstraint=eastwest;whiteSpace=wrap;html=1;" vertex="1" parent="iFhvtQih0RZkRo9jPCLU-2">
          <mxGeometry y="52" width="270" height="26" as="geometry" />
        </mxCell>
        <mxCell id="iFhvtQih0RZkRo9jPCLU-5" value="+ tagline: str" style="text;strokeColor=none;fillColor=none;align=left;verticalAlign=top;spacingLeft=4;spacingRight=4;overflow=hidden;rotatable=0;points=[[0,0.5],[1,0.5]];portConstraint=eastwest;whiteSpace=wrap;html=1;" vertex="1" parent="iFhvtQih0RZkRo9jPCLU-2">
          <mxGeometry y="78" width="270" height="26" as="geometry" />
        </mxCell>
      </root>
    </mxGraphModel>
  </diagram>
</mxfile>
